PathFileType	4	(X/Y/Z)	E:\3-PhD\Data\MocapData\ElaboratedData\009\pre\dynamicElaborations\RunN3\RunN3.trc
DataRate	CameraRate	NumFrames	NumMarkers	Units	OrigDataRate	DataStartFrame
200	200	4	54	mm	200	4.530000e+02
Frame#	Time	FHD			LBHD			RBHD			C7			T10			CLAV			LSHO			LUUPA			LMUPA			LDUPA			LLEP			LMEP			LRAD			LUL			LRFIN			RSHO			RUPA1			RMUPA			RDUPA			RLEP			RMEP			RRAD			RUL			RUFIN			RASI			USACR			LSACR			RSACR			LTHI1			LTHI2			LTHI3			LTHI4			LTIB1			LTIB2			LTIB3			LTIB4			LLMAL			LHEE			LMT1			LMT2			RTHI			RTHI2			RTHI3			RTHI4			RLFC			RTIB1			RTIB2			RTIB3			RTIB4			RLMAL			RHEE			RMT1			RMT2			RMT5		
		X1	Y1	Z1	X2	Y2	Z2	X3	Y3	Z3	X4	Y4	Z4	X5	Y5	Z5	X6	Y6	Z6	X7	Y7	Z7	X8	Y8	Z8	X9	Y9	Z9	X10	Y10	Z10	X11	Y11	Z11	X12	Y12	Z12	X13	Y13	Z13	X14	Y14	Z14	X15	Y15	Z15	X16	Y16	Z16	X17	Y17	Z17	X18	Y18	Z18	X19	Y19	Z19	X20	Y20	Z20	X21	Y21	Z21	X22	Y22	Z22	X23	Y23	Z23	X24	Y24	Z24	X25	Y25	Z25	X26	Y26	Z26	X27	Y27	Z27	X28	Y28	Z28	X29	Y29	Z29	X30	Y30	Z30	X31	Y31	Z31	X32	Y32	Z32	X33	Y33	Z33	X34	Y34	Z34	X35	Y35	Z35	X36	Y36	Z36	X37	Y37	Z37	X38	Y38	Z38	X39	Y39	Z39	X40	Y40	Z40	X41	Y41	Z41	X42	Y42	Z42	X43	Y43	Z43	X44	Y44	Z44	X45	Y45	Z45	X46	Y46	Z46	X47	Y47	Z47	X48	Y48	Z48	X49	Y49	Z49	X50	Y50	Z50	X51	Y51	Z51	X52	Y52	Z52	X53	Y53	Z53	X54	Y54	Z54	

475	2.370000	-162.226920	1426.289346	786.956006	-272.647313	1424.730026	624.030425	-303.414499	1412.128227	748.401231	-355.716100	1310.435125	660.407192	-560.785613	1027.035361	613.188073	-270.143629	1165.596060	680.645002	-249.072909	1258.001301	556.567148	-239.095735	1130.530678	409.789904	-200.249686	1105.192703	421.915773	-220.030119	1072.514840	375.508861	-197.183376	963.701503	329.617572	-224.107559	913.874521	382.301569	-42.830707	1032.881827	522.624655	5.338859	993.641102	480.181137	14.222671	1087.581737	525.100193	-345.944242	1236.362400	835.987950	-518.726546	1178.508201	875.869156	-528.193569	1132.053360	870.444297	-584.238905	1157.207261	876.794406	-711.093257	1098.545847	867.145065	-712.921578	1104.940927	791.692404	-662.273846	843.843160	823.814568	-734.887814	842.994804	837.018648	-661.241868	793.985898	880.603569	-445.290019	804.485090	698.349493	-601.361135	925.210352	594.812526	-598.724800	902.897063	559.266483	-608.561875	886.591454	614.790540	-444.177481	692.600214	303.737800	-409.251382	624.520606	268.191724	-365.473943	619.559217	285.858444	-436.952764	575.833317	244.436045	-454.376193	299.491581	142.730124	-517.415231	319.032586	85.403291	-491.038512	287.856778	100.371332	-534.254398	213.758567	90.104921	-649.790100	136.410490	10.196973	-746.095748	111.967417	20.121721	-538.128969	50.410446	64.877587	-529.044337	56.370486	18.787249	-408.639681	607.899336	781.950065	-352.059001	602.543194	812.532023	-333.313159	631.295647	822.051807	-292.834497	541.091647	798.859436	-197.179103	492.782312	808.517521	-48.022298	343.087119	739.970922	-85.834057	250.764073	701.512389	-41.169947	263.035452	711.239629	1.248518	244.665397	679.244222	-12.435981	140.695916	635.292798	-17.319225	119.214618	540.372253	155.737936	172.240460	677.941947	135.980392	147.812572	702.818998	94.143892	89.963727	705.216647	
476	2.375000	-139.919026	1428.990229	800.185542	-249.990883	1426.736674	637.092631	-280.970332	1414.648421	761.478770	-332.734253	1311.981930	672.396202	-535.451297	1027.605522	620.704566	-247.004569	1167.798997	694.184504	-224.543379	1260.021317	570.480939	-213.294407	1134.369988	422.204328	-174.374926	1109.049286	434.379853	-193.795315	1076.812694	387.438191	-169.925195	968.903915	340.260979	-197.436448	918.247204	392.089550	-16.829426	1033.537909	536.116335	31.500432	995.186013	493.252942	39.862125	1088.090348	540.422791	-326.329599	1238.474941	848.107600	-500.131430	1182.791821	884.173473	-509.738387	1136.316008	879.361588	-566.062653	1162.116724	884.037772	-692.184648	1103.061960	871.486258	-692.625757	1109.763634	796.270704	-639.633227	849.180911	827.670766	-712.177357	847.443110	840.809465	-637.688554	798.878101	883.711759	-420.311974	805.130869	705.415164	-575.574996	926.294124	601.300653	-572.790166	904.262389	565.557408	-583.237929	887.516247	620.827120	-423.221868	693.164935	311.431412	-391.813121	623.195588	276.551935	-348.602556	615.834431	294.716186	-421.747026	575.990606	252.311776	-448.581671	300.534977	148.970621	-510.423409	321.671990	90.806876	-484.785638	289.936899	105.908427	-529.175705	216.695998	94.587370	-645.243642	142.350779	12.222645	-741.774397	121.305781	21.506854	-537.467067	49.398660	65.149648	-528.416889	56.410637	19.341099	-383.099174	606.334886	786.325110	-326.147573	600.258833	815.995031	-307.158408	628.731430	825.598755	-267.488768	538.635025	800.630606	-171.504872	489.900846	809.154486	-16.186884	343.248065	748.550938	-49.597484	248.212956	712.359937	-5.582208	262.390843	722.556823	38.138717	244.532060	691.730319	29.527528	138.641891	650.809864	25.702482	115.575518	556.472681	197.409243	174.825992	693.201912	178.458430	150.148170	718.406728	138.068333	91.273943	721.683098	
477	2.380000	-117.616752	1431.885927	813.579977	-227.519344	1428.886658	650.441718	-258.566280	1417.334406	774.891252	-309.803291	1313.738683	684.691314	-510.003521	1028.303916	628.416490	-223.956017	1170.204017	707.878966	-200.185784	1262.275706	584.441955	-188.241105	1138.388428	434.672570	-149.237970	1113.053788	446.750546	-168.462984	1081.261172	399.385610	-143.822739	974.197571	350.961051	-171.916390	922.789491	401.996396	8.626846	1033.863958	549.178553	56.894760	996.313061	505.824081	65.064023	1088.128926	555.202771	-306.489695	1240.561588	860.413081	-481.140360	1186.995462	892.663831	-490.895054	1140.525293	888.352131	-547.494276	1166.957721	891.524790	-672.840643	1107.565829	876.011207	-671.844560	1114.505276	801.029150	-616.266313	854.501297	832.122613	-688.736318	851.790149	845.071192	-613.519853	803.827320	887.580312	-395.200535	805.776072	712.810261	-549.618761	927.492731	607.988884	-546.652863	905.736645	572.047871	-557.747032	888.555765	627.047311	-401.894843	694.162757	319.688357	-374.025231	622.378217	285.642954	-331.494537	612.740621	304.209680	-406.083711	576.808354	260.848339	-442.154198	302.279550	156.133613	-502.720019	324.940595	97.024542	-477.806266	292.682865	112.287754	-523.237775	220.275686	99.865806	-639.763443	148.803407	15.036941	-736.376044	131.405638	23.931653	-536.687688	48.264077	65.699597	-527.668993	56.468442	20.289101	-357.495458	604.766309	790.874316	-300.169027	597.937648	819.627605	-280.879198	626.097918	829.240680	-242.214160	536.025349	802.635270	-146.027575	486.911376	810.116643	14.672125	343.228058	756.847169	-14.727102	245.932862	722.899983	28.671296	261.801528	733.483117	73.551676	244.436906	703.751655	69.542328	136.990759	665.730688	66.608409	112.564481	572.009361	237.284665	177.104125	707.594419	219.105706	152.211857	733.134090	179.964494	92.488963	737.266459	
478	2.385000	-95.350399	1434.891747	827.111322	-205.241626	1431.133025	664.036347	-236.228205	1420.129767	788.587521	-286.954835	1315.642957	697.237624	-484.450038	1029.078671	636.335132	-201.004877	1172.739416	721.672398	-175.986877	1264.688862	598.392665	-163.805615	1142.500260	447.155757	-124.732009	1117.103784	459.027476	-143.898475	1085.774019	411.326630	-118.765086	979.488845	361.665696	-147.457043	927.411637	411.963065	33.595446	1033.834517	561.782928	81.596770	996.986808	517.852058	89.884925	1087.675834	569.374357	-286.421149	1242.541932	872.872196	-461.749783	1190.986642	901.341987	-471.653776	1144.550831	897.389963	-528.494851	1171.590183	899.210190	-653.074334	1111.948720	880.719942	-650.572796	1119.049962	805.954750	-592.262565	859.682034	837.219366	-664.669058	855.942020	849.790286	-588.929832	808.730043	892.304864	-369.962546	806.387423	720.535880	-523.515699	928.760784	614.901849	-520.336607	907.270297	578.770331	-532.103660	889.668465	633.480119	-380.108474	695.530670	328.431094	-355.726957	622.057276	295.324176	-313.973530	610.281772	314.220121	-389.774115	578.226181	269.927159	-434.907394	304.715176	164.063367	-494.206492	328.802989	103.991172	-469.971936	296.065937	119.413670	-516.306862	224.450819	105.878623	-633.248592	155.686064	18.706399	-729.778314	142.149130	27.582557	-535.769489	47.044273	66.523058	-526.766414	56.562878	21.621907	-331.827675	603.211307	795.652916	-274.120535	595.641120	823.494620	-254.479313	623.464467	833.016979	-216.987909	533.324314	804.992239	-120.710099	483.886843	811.536456	44.517843	342.945360	764.804039	18.660902	243.834279	732.955861	61.491364	261.154178	743.866744	107.389519	244.250116	715.157223	107.431002	135.582687	679.747827	105.276758	110.017534	586.660507	275.151647	178.936554	721.030451	257.673067	153.858108	746.870926	219.567826	93.451908	751.804937	
